<svg width="1726" height="319" viewBox="0 0 1726 319" fill="none" xmlns="http://www.w3.org/2000/svg">
<path d="M333.094 225.638L347.745 210.996C347.745 210.996 359.107 199.777 345.101 185.265C331.096 170.753 197.862 32.2807 193.675 28.0072C189.487 23.7338 175.744 10.4129 157.783 27.657C139.823 44.901 7.48718 182.533 7.48718 182.533C7.48718 182.533 -7.84011 196.214 5.3682 212.097L19.636 226.328C19.636 226.328 149.802 89.5473 153.838 85.9143C157.874 82.2814 165.836 74.2749 176.42 74.2749C188.529 74.2749 199.628 86.2846 199.628 86.2846L333.094 225.638Z" fill="#001456"/>
<path d="M333.094 225.638L347.745 210.996C347.745 210.996 359.107 199.777 345.101 185.265C331.096 170.753 197.862 32.2807 193.675 28.0072C189.487 23.7338 175.744 10.4129 157.783 27.657L333.094 225.638Z" fill="url(#paint0_linear_1529_75)"/>
<path d="M175.381 179.711L291.208 296.045C291.208 296.045 303.659 308.676 316.04 296.045L336.958 274.528C336.958 274.528 351.085 262.998 336.958 248.917C324.85 236.797 197.63 104.259 193.675 100.637C189.719 97.0135 177.379 81.0005 158.096 100.977C138.813 120.953 15.0744 250.288 15.0744 250.288C15.0744 250.288 3.38982 260.987 17.5264 277.39L33.9939 294.884C33.9939 294.884 46.5363 311.178 63.5083 294.444L175.381 179.711Z" fill="#001456"/>
<path d="M291.209 296.045C291.209 296.045 303.66 308.676 316.041 296.045L336.958 274.528C336.958 274.528 351.085 262.998 336.958 248.917C324.85 236.797 197.63 104.259 193.675 100.637C189.719 97.0135 177.379 81.0005 158.096 100.977L291.209 296.045Z" fill="url(#paint1_linear_1529_75)"/>
<path d="M495.616 29.6V80H490.36V56.744H458.824V80H453.496V29.6H458.824V52.064H490.36V29.6H495.616Z" fill="#6C6C6C"/>
<path d="M545.605 66.536H517.525L511.477 80H505.933L528.973 29.6H534.229L557.269 80H551.653L545.605 66.536ZM543.661 62.216L531.565 35.144L519.469 62.216H543.661Z" fill="#6C6C6C"/>
<path d="M604.926 29.6L582.03 72.008C580.398 75.032 578.478 77.288 576.27 78.776C574.11 80.216 571.734 80.936 569.142 80.936C567.222 80.936 565.158 80.48 562.95 79.568L564.462 75.248C566.19 75.92 567.774 76.256 569.214 76.256C572.526 76.256 575.238 74.456 577.35 70.856L578.79 68.408L558.342 29.6H564.03L581.598 63.728L599.598 29.6H604.926Z" fill="#6C6C6C"/>
<path d="M650.552 29.6V80H645.368V59.12C639.896 61.472 634.592 62.648 629.456 62.648C623.552 62.648 618.944 61.208 615.632 58.328C612.368 55.448 610.736 51.416 610.736 46.232V29.6H615.992V45.656C615.992 49.544 617.216 52.568 619.664 54.728C622.112 56.888 625.544 57.968 629.96 57.968C635 57.968 640.136 56.768 645.368 54.368V29.6H650.552Z" fill="#6C6C6C"/>
<path d="M710.488 29.6V80H705.232V56.744H673.696V80H668.368V29.6H673.696V52.064H705.232V29.6H710.488Z" fill="#6C6C6C"/>
<path d="M750.325 80.432C745.333 80.432 740.797 79.328 736.717 77.12C732.685 74.864 729.517 71.792 727.213 67.904C724.957 64.016 723.829 59.648 723.829 54.8C723.829 49.952 724.957 45.584 727.213 41.696C729.517 37.808 732.685 34.76 736.717 32.552C740.797 30.296 745.333 29.168 750.325 29.168C755.317 29.168 759.805 30.272 763.789 32.48C767.821 34.688 770.989 37.76 773.293 41.696C775.597 45.584 776.749 49.952 776.749 54.8C776.749 59.648 775.597 64.04 773.293 67.976C770.989 71.864 767.821 74.912 763.789 77.12C759.805 79.328 755.317 80.432 750.325 80.432ZM750.325 75.68C754.309 75.68 757.909 74.792 761.125 73.016C764.341 71.192 766.861 68.696 768.685 65.528C770.509 62.312 771.421 58.736 771.421 54.8C771.421 50.864 770.509 47.312 768.685 44.144C766.861 40.928 764.341 38.432 761.125 36.656C757.909 34.832 754.309 33.92 750.325 33.92C746.341 33.92 742.717 34.832 739.453 36.656C736.237 38.432 733.693 40.928 731.821 44.144C729.997 47.312 729.085 50.864 729.085 54.8C729.085 58.736 729.997 62.312 731.821 65.528C733.693 68.696 736.237 71.192 739.453 73.016C742.717 74.792 746.341 75.68 750.325 75.68Z" fill="#6C6C6C"/>
<path d="M786.569 58.256H805.434V62.72H786.569V58.256Z" fill="#6C6C6C"/>
<path d="M818.958 29.6H824.214V71.36L856.47 29.6H861.294V80H856.038V38.312L823.782 80H818.958V29.6Z" fill="#6C6C6C"/>
<path d="M901.053 80.432C896.061 80.432 891.549 79.328 887.517 77.12C883.533 74.912 880.389 71.864 878.085 67.976C875.829 64.04 874.701 59.648 874.701 54.8C874.701 49.952 875.829 45.584 878.085 41.696C880.389 37.76 883.557 34.688 887.589 32.48C891.621 30.272 896.133 29.168 901.125 29.168C904.869 29.168 908.325 29.792 911.493 31.04C914.661 32.288 917.349 34.112 919.557 36.512L916.173 39.896C912.237 35.912 907.269 33.92 901.269 33.92C897.285 33.92 893.661 34.832 890.397 36.656C887.133 38.48 884.565 40.976 882.693 44.144C880.869 47.312 879.957 50.864 879.957 54.8C879.957 58.736 880.869 62.288 882.693 65.456C884.565 68.624 887.133 71.12 890.397 72.944C893.661 74.768 897.285 75.68 901.269 75.68C907.317 75.68 912.285 73.664 916.173 69.632L919.557 73.016C917.349 75.416 914.637 77.264 911.421 78.56C908.253 79.808 904.797 80.432 901.053 80.432Z" fill="#6C6C6C"/>
<path d="M952.258 80.432C947.266 80.432 942.754 79.328 938.722 77.12C934.738 74.912 931.594 71.864 929.29 67.976C927.034 64.04 925.906 59.648 925.906 54.8C925.906 49.952 927.034 45.584 929.29 41.696C931.594 37.76 934.762 34.688 938.794 32.48C942.826 30.272 947.338 29.168 952.33 29.168C956.074 29.168 959.53 29.792 962.698 31.04C965.866 32.288 968.554 34.112 970.762 36.512L967.378 39.896C963.442 35.912 958.474 33.92 952.474 33.92C948.49 33.92 944.866 34.832 941.602 36.656C938.338 38.48 935.77 40.976 933.898 44.144C932.074 47.312 931.162 50.864 931.162 54.8C931.162 58.736 932.074 62.288 933.898 65.456C935.77 68.624 938.338 71.12 941.602 72.944C944.866 74.768 948.49 75.68 952.474 75.68C958.522 75.68 963.49 73.664 967.378 69.632L970.762 73.016C968.554 75.416 965.842 77.264 962.626 78.56C959.458 79.808 956.002 80.432 952.258 80.432Z" fill="#6C6C6C"/>
<path d="M1020.68 29.6V80H1015.42V34.208H991.085L990.509 51.056C990.269 58.016 989.693 63.632 988.781 67.904C987.917 72.128 986.573 75.296 984.749 77.408C982.925 79.472 980.501 80.504 977.477 80.504C976.181 80.504 974.837 80.336 973.445 80L973.877 75.248C974.693 75.44 975.485 75.536 976.253 75.536C978.365 75.536 980.069 74.696 981.365 73.016C982.709 71.336 983.717 68.744 984.389 65.24C985.061 61.688 985.517 57.008 985.757 51.2L986.477 29.6H1020.68Z" fill="#6C6C6C"/>
<path d="M1074.04 75.392V80H1038.4V29.6H1072.96V34.208H1043.73V52.136H1069.79V56.672H1043.73V75.392H1074.04Z" fill="#6C6C6C"/>
<path d="M1132.88 75.392V91.304H1127.91V80H1083.92L1083.85 91.304H1078.88L1078.95 75.392H1081.47C1084.78 75.2 1087.09 72.584 1088.38 67.544C1089.68 62.456 1090.47 55.256 1090.76 45.944L1091.33 29.6H1125.32V75.392H1132.88ZM1095.51 46.448C1095.27 54.128 1094.67 60.464 1093.71 65.456C1092.8 70.4 1091.24 73.712 1089.03 75.392H1120.06V34.208H1095.94L1095.51 46.448Z" fill="#6C6C6C"/>
<path d="M1166.57 80.432C1161.58 80.432 1157.04 79.328 1152.96 77.12C1148.93 74.864 1145.76 71.792 1143.46 67.904C1141.2 64.016 1140.07 59.648 1140.07 54.8C1140.07 49.952 1141.2 45.584 1143.46 41.696C1145.76 37.808 1148.93 34.76 1152.96 32.552C1157.04 30.296 1161.58 29.168 1166.57 29.168C1171.56 29.168 1176.05 30.272 1180.03 32.48C1184.07 34.688 1187.23 37.76 1189.54 41.696C1191.84 45.584 1192.99 49.952 1192.99 54.8C1192.99 59.648 1191.84 64.04 1189.54 67.976C1187.23 71.864 1184.07 74.912 1180.03 77.12C1176.05 79.328 1171.56 80.432 1166.57 80.432ZM1166.57 75.68C1170.55 75.68 1174.15 74.792 1177.37 73.016C1180.59 71.192 1183.11 68.696 1184.93 65.528C1186.75 62.312 1187.67 58.736 1187.67 54.8C1187.67 50.864 1186.75 47.312 1184.93 44.144C1183.11 40.928 1180.59 38.432 1177.37 36.656C1174.15 34.832 1170.55 33.92 1166.57 33.92C1162.59 33.92 1158.96 34.832 1155.7 36.656C1152.48 38.432 1149.94 40.928 1148.07 44.144C1146.24 47.312 1145.33 50.864 1145.33 54.8C1145.33 58.736 1146.24 62.312 1148.07 65.528C1149.94 68.696 1152.48 71.192 1155.7 73.016C1158.96 74.792 1162.59 75.68 1166.57 75.68Z" fill="#6C6C6C"/>
<path d="M1236.31 54.008C1239.81 54.728 1242.48 56.144 1244.3 58.256C1246.12 60.32 1247.04 63.032 1247.04 66.392C1247.04 70.76 1245.48 74.12 1242.36 76.472C1239.28 78.824 1234.75 80 1228.75 80H1206.43V29.6H1227.38C1232.76 29.6 1236.96 30.704 1239.98 32.912C1243 35.12 1244.52 38.312 1244.52 42.488C1244.52 45.32 1243.8 47.72 1242.36 49.688C1240.92 51.608 1238.9 53.048 1236.31 54.008ZM1211.68 52.424H1227.09C1230.98 52.424 1233.96 51.632 1236.02 50.048C1238.13 48.464 1239.19 46.16 1239.19 43.136C1239.19 40.112 1238.13 37.808 1236.02 36.224C1233.96 34.64 1230.98 33.848 1227.09 33.848H1211.68V52.424ZM1228.75 75.752C1237.44 75.752 1241.78 72.512 1241.78 66.032C1241.78 59.696 1237.44 56.528 1228.75 56.528H1211.68V75.752H1228.75Z" fill="#6C6C6C"/>
<path d="M1293.33 66.536H1265.25L1259.21 80H1253.66L1276.7 29.6H1281.96L1305 80H1299.38L1293.33 66.536ZM1291.39 62.216L1279.29 35.144L1267.2 62.216H1291.39Z" fill="#6C6C6C"/>
<path d="M1345.82 34.208H1328.11V80H1322.85V34.208H1305.14V29.6H1345.82V34.208Z" fill="#6C6C6C"/>
<path d="M1391.53 75.392V80H1355.89V29.6H1390.45V34.208H1361.22V52.136H1387.28V56.672H1361.22V75.392H1391.53Z" fill="#6C6C6C"/>
<path d="M1443.6 29.6V80H1438.35V34.208H1414.01L1413.43 51.056C1413.19 58.016 1412.62 63.632 1411.71 67.904C1410.84 72.128 1409.5 75.296 1407.67 77.408C1405.85 79.472 1403.43 80.504 1400.4 80.504C1399.11 80.504 1397.76 80.336 1396.37 80L1396.8 75.248C1397.62 75.44 1398.41 75.536 1399.18 75.536C1401.29 75.536 1402.99 74.696 1404.29 73.016C1405.63 71.336 1406.64 68.744 1407.31 65.24C1407.98 61.688 1408.44 57.008 1408.68 51.2L1409.4 29.6H1443.6Z" fill="#6C6C6C"/>
<path d="M1482.42 47.6C1488.37 47.6 1492.91 48.944 1496.03 51.632C1499.2 54.32 1500.78 58.256 1500.78 63.44C1500.78 68.864 1499.1 72.992 1495.74 75.824C1492.43 78.608 1487.63 80 1481.34 80H1461.32V29.6H1466.58V47.6H1482.42ZM1481.2 75.752C1485.85 75.752 1489.38 74.72 1491.78 72.656C1494.23 70.592 1495.45 67.544 1495.45 63.512C1495.45 55.784 1490.7 51.92 1481.2 51.92H1466.58V75.752H1481.2Z" fill="#6C6C6C"/>
<path d="M1535.19 80.432C1530.2 80.432 1525.69 79.328 1521.66 77.12C1517.67 74.912 1514.53 71.864 1512.23 67.976C1509.97 64.04 1508.84 59.648 1508.84 54.8C1508.84 49.952 1509.97 45.584 1512.23 41.696C1514.53 37.76 1517.7 34.688 1521.73 32.48C1525.76 30.272 1530.27 29.168 1535.27 29.168C1539.01 29.168 1542.47 29.792 1545.63 31.04C1548.8 32.288 1551.49 34.112 1553.7 36.512L1550.31 39.896C1546.38 35.912 1541.41 33.92 1535.41 33.92C1531.43 33.92 1527.8 34.832 1524.54 36.656C1521.27 38.48 1518.71 40.976 1516.83 44.144C1515.01 47.312 1514.1 50.864 1514.1 54.8C1514.1 58.736 1515.01 62.288 1516.83 65.456C1518.71 68.624 1521.27 71.12 1524.54 72.944C1527.8 74.768 1531.43 75.68 1535.41 75.68C1541.46 75.68 1546.43 73.664 1550.31 69.632L1553.7 73.016C1551.49 75.416 1548.78 77.264 1545.56 78.56C1542.39 79.808 1538.94 80.432 1535.19 80.432Z" fill="#6C6C6C"/>
<path d="M1582.12 56.888H1570.6V80H1565.42V29.6H1570.6V52.208H1582.12L1599.19 29.6H1604.95L1586.23 54.08L1606.03 80H1599.91L1582.12 56.888Z" fill="#6C6C6C"/>
<path d="M1614.94 29.6H1620.19V71.36L1652.45 29.6H1657.27V80H1652.02V38.312L1619.76 80H1614.94V29.6Z" fill="#6C6C6C"/>
<path d="M1675 29.6H1680.26V71.36L1712.51 29.6H1717.34V80H1712.08V38.312L1679.83 80H1675V29.6ZM1696.03 25.928C1692.43 25.928 1689.57 25.112 1687.46 23.48C1685.39 21.848 1684.34 19.568 1684.29 16.64H1688.25C1688.3 18.56 1689.02 20.072 1690.41 21.176C1691.8 22.28 1693.67 22.832 1696.03 22.832C1698.33 22.832 1700.18 22.28 1701.57 21.176C1703.01 20.072 1703.75 18.56 1703.8 16.64H1707.76C1707.71 19.568 1706.63 21.848 1704.52 23.48C1702.41 25.112 1699.58 25.928 1696.03 25.928Z" fill="#6C6C6C"/>
<path d="M495.904 137.6V188H490.648V142.208H458.752V188H453.496V137.6H495.904Z" fill="#6C6C6C"/>
<path d="M532.494 137.6C538.926 137.6 543.966 139.136 547.614 142.208C551.262 145.28 553.086 149.504 553.086 154.88C553.086 160.256 551.262 164.48 547.614 167.552C543.966 170.576 538.926 172.088 532.494 172.088H518.958V188H513.63V137.6H532.494ZM532.35 167.408C537.342 167.408 541.158 166.328 543.798 164.168C546.438 161.96 547.758 158.864 547.758 154.88C547.758 150.8 546.438 147.68 543.798 145.52C541.158 143.312 537.342 142.208 532.35 142.208H518.958V167.408H532.35Z" fill="#6C6C6C"/>
<path d="M587.571 188.432C582.579 188.432 578.043 187.328 573.963 185.12C569.931 182.864 566.763 179.792 564.459 175.904C562.203 172.016 561.075 167.648 561.075 162.8C561.075 157.952 562.203 153.584 564.459 149.696C566.763 145.808 569.931 142.76 573.963 140.552C578.043 138.296 582.579 137.168 587.571 137.168C592.563 137.168 597.051 138.272 601.035 140.48C605.067 142.688 608.235 145.76 610.539 149.696C612.843 153.584 613.995 157.952 613.995 162.8C613.995 167.648 612.843 172.04 610.539 175.976C608.235 179.864 605.067 182.912 601.035 185.12C597.051 187.328 592.563 188.432 587.571 188.432ZM587.571 183.68C591.555 183.68 595.155 182.792 598.371 181.016C601.587 179.192 604.107 176.696 605.931 173.528C607.755 170.312 608.667 166.736 608.667 162.8C608.667 158.864 607.755 155.312 605.931 152.144C604.107 148.928 601.587 146.432 598.371 144.656C595.155 142.832 591.555 141.92 587.571 141.92C583.587 141.92 579.963 142.832 576.699 144.656C573.483 146.432 570.939 148.928 569.067 152.144C567.243 155.312 566.331 158.864 566.331 162.8C566.331 166.736 567.243 170.312 569.067 173.528C570.939 176.696 573.483 179.192 576.699 181.016C579.963 182.792 583.587 183.68 587.571 183.68Z" fill="#6C6C6C"/>
<path d="M663.069 183.392V188H627.429V137.6H661.989V142.208H632.757V160.136H658.821V164.672H632.757V183.392H663.069Z" fill="#6C6C6C"/>
<path d="M692.314 164.888H680.794V188H675.61V137.6H680.794V160.208H692.314L709.378 137.6H715.138L696.418 162.08L716.218 188H710.098L692.314 164.888Z" fill="#6C6C6C"/>
<path d="M757.681 142.208H739.969V188H734.713V142.208H717.001V137.6H757.681V142.208Z" fill="#6C6C6C"/>
<path d="M809.873 137.6V188H804.617V164.744H773.081V188H767.753V137.6H773.081V160.064H804.617V137.6H809.873Z" fill="#6C6C6C"/>
<path d="M848.702 155.6C854.654 155.6 859.19 156.944 862.31 159.632C865.478 162.32 867.062 166.256 867.062 171.44C867.062 176.864 865.382 180.992 862.022 183.824C858.71 186.608 853.91 188 847.622 188H827.606V137.6H832.862V155.6H848.702ZM847.478 183.752C852.134 183.752 855.662 182.72 858.062 180.656C860.51 178.592 861.734 175.544 861.734 171.512C861.734 163.784 856.982 159.92 847.478 159.92H832.862V183.752H847.478ZM875.774 137.6H881.03V188H875.774V137.6Z" fill="#6C6C6C"/>
<path d="M898.709 137.6H903.965V179.36L936.221 137.6H941.045V188H935.789V146.312L903.533 188H898.709V137.6ZM919.733 133.928C916.133 133.928 913.277 133.112 911.165 131.48C909.101 129.848 908.045 127.568 907.997 124.64H911.957C912.005 126.56 912.725 128.072 914.117 129.176C915.509 130.28 917.381 130.832 919.733 130.832C922.037 130.832 923.885 130.28 925.277 129.176C926.717 128.072 927.461 126.56 927.509 124.64H931.469C931.421 127.568 930.341 129.848 928.229 131.48C926.117 133.112 923.285 133.928 919.733 133.928Z" fill="#6C6C6C"/>
<path d="M978.336 137.6H983.592V179.36L1015.85 137.6H1020.67V188H1015.42V146.312L983.16 188H978.336V137.6Z" fill="#6C6C6C"/>
<path d="M1080.52 137.6V188H1075.26V164.744H1043.73V188H1038.4V137.6H1043.73V160.064H1075.26V137.6H1080.52Z" fill="#6C6C6C"/>
<path d="M1120.29 188.432C1115.29 188.432 1110.78 187.328 1106.75 185.12C1102.77 182.912 1099.62 179.864 1097.32 175.976C1095.06 172.04 1093.93 167.648 1093.93 162.8C1093.93 157.952 1095.06 153.584 1097.32 149.696C1099.62 145.76 1102.79 142.688 1106.82 140.48C1110.85 138.272 1115.36 137.168 1120.36 137.168C1124.1 137.168 1127.56 137.792 1130.73 139.04C1133.89 140.288 1136.58 142.112 1138.79 144.512L1135.41 147.896C1131.47 143.912 1126.5 141.92 1120.5 141.92C1116.52 141.92 1112.89 142.832 1109.63 144.656C1106.37 146.48 1103.8 148.976 1101.92 152.144C1100.1 155.312 1099.19 158.864 1099.19 162.8C1099.19 166.736 1100.1 170.288 1101.92 173.456C1103.8 176.624 1106.37 179.12 1109.63 180.944C1112.89 182.768 1116.52 183.68 1120.5 183.68C1126.55 183.68 1131.52 181.664 1135.41 177.632L1138.79 181.016C1136.58 183.416 1133.87 185.264 1130.65 186.56C1127.49 187.808 1124.03 188.432 1120.29 188.432Z" fill="#6C6C6C"/>
<path d="M1182.86 142.208H1165.14V188H1159.89V142.208H1142.18V137.6H1182.86V142.208Z" fill="#6C6C6C"/>
<path d="M1192.93 137.6H1198.18V179.36L1230.44 137.6H1235.26V188H1230.01V146.312L1197.75 188H1192.93V137.6Z" fill="#6C6C6C"/>
<path d="M1285.97 142.208H1268.26V188H1263V142.208H1245.29V137.6H1285.97V142.208Z" fill="#6C6C6C"/>
<path d="M1333.46 137.6L1310.56 180.008C1308.93 183.032 1307.01 185.288 1304.8 186.776C1302.64 188.216 1300.27 188.936 1297.68 188.936C1295.76 188.936 1293.69 188.48 1291.48 187.568L1293 183.248C1294.72 183.92 1296.31 184.256 1297.75 184.256C1301.06 184.256 1303.77 182.456 1305.88 178.856L1307.32 176.408L1286.88 137.6H1292.56L1310.13 171.728L1328.13 137.6H1333.46Z" fill="#6C6C6C"/>
<path d="M1376.14 142.208H1358.43V188H1353.17V142.208H1335.46V137.6H1376.14V142.208Z" fill="#6C6C6C"/>
<path d="M449.3 273.382L461.77 257.042H467.446L455.234 273.382L467.446 289.636H461.77L449.3 273.382ZM464.608 273.382L477.078 257.042H482.754L470.542 273.382L482.754 289.636H477.078L464.608 273.382Z" fill="#6C6C6C"/>
<path d="M516.944 268.394H503.184V296H496.992V235.8H503.184V262.804H516.944L537.326 235.8H544.206L521.846 265.04L545.496 296H538.186L516.944 268.394Z" fill="#6C6C6C"/>
<path d="M593.993 279.918H560.453L553.229 296H546.607L574.127 235.8H580.405L607.925 296H601.217L593.993 279.918ZM591.671 274.758L577.223 242.422L562.775 274.758H591.671Z" fill="#6C6C6C"/>
<path d="M675.788 290.496V309.502H669.854V296H617.308L617.222 309.502H611.288L611.374 290.496H614.384C618.34 290.267 621.092 287.142 622.64 281.122C624.188 275.045 625.134 266.445 625.478 255.322L626.166 235.8H666.758V290.496H675.788ZM631.154 255.924C630.867 265.097 630.15 272.665 629.004 278.628C627.914 284.533 626.051 288.489 623.414 290.496H660.48V241.304H631.67L631.154 255.924Z" fill="#6C6C6C"/>
<path d="M728.325 279.918H694.785L687.561 296H680.939L708.459 235.8H714.737L742.257 296H735.549L728.325 279.918ZM726.003 274.758L711.555 242.422L697.107 274.758H726.003Z" fill="#6C6C6C"/>
<path d="M780.129 296.516C774.166 296.516 768.777 295.197 763.961 292.56C759.202 289.923 755.447 286.282 752.695 281.638C750 276.937 748.653 271.691 748.653 265.9C748.653 260.109 750 254.892 752.695 250.248C755.447 245.547 759.231 241.877 764.047 239.24C768.863 236.603 774.252 235.284 780.215 235.284C784.687 235.284 788.815 236.029 792.599 237.52C796.383 239.011 799.594 241.189 802.231 244.056L798.189 248.098C793.488 243.339 787.554 240.96 780.387 240.96C775.628 240.96 771.3 242.049 767.401 244.228C763.502 246.407 760.435 249.388 758.199 253.172C756.02 256.956 754.931 261.199 754.931 265.9C754.931 270.601 756.02 274.844 758.199 278.628C760.435 282.412 763.502 285.393 767.401 287.572C771.3 289.751 775.628 290.84 780.387 290.84C787.611 290.84 793.545 288.432 798.189 283.616L802.231 287.658C799.594 290.525 796.354 292.732 792.513 294.28C788.729 295.771 784.601 296.516 780.129 296.516Z" fill="#6C6C6C"/>
<path d="M854.866 241.304H833.71V296H827.432V241.304H806.276V235.8H854.866V241.304Z" fill="#6C6C6C"/>
<path d="M889.428 235.8C897.111 235.8 903.131 237.635 907.488 241.304C911.846 244.973 914.024 250.019 914.024 256.44C914.024 262.861 911.846 267.907 907.488 271.576C903.131 275.188 897.111 276.994 889.428 276.994H873.26V296H866.896V235.8H889.428ZM889.256 271.404C895.219 271.404 899.777 270.114 902.93 267.534C906.084 264.897 907.66 261.199 907.66 256.44C907.66 251.567 906.084 247.84 902.93 245.26C899.777 242.623 895.219 241.304 889.256 241.304H873.26V271.404H889.256Z" fill="#6C6C6C"/>
<path d="M921.933 289.636L934.145 273.382L921.933 257.042H927.609L940.079 273.382L927.609 289.636H921.933ZM937.241 289.636L949.453 273.382L937.241 257.042H942.917L955.387 273.382L942.917 289.636H937.241Z" fill="#6C6C6C"/>
<defs>
<linearGradient id="paint0_linear_1529_75" x1="157.733" y1="122.314" x2="352.094" y2="122.314" gradientUnits="userSpaceOnUse">
<stop stop-color="#001357"/>
<stop offset="1" stop-color="#4B57BB"/>
</linearGradient>
<linearGradient id="paint1_linear_1529_75" x1="158.066" y1="196.394" x2="343.214" y2="196.394" gradientUnits="userSpaceOnUse">
<stop stop-color="#001357"/>
<stop offset="1" stop-color="#565EAA"/>
</linearGradient>
</defs>
</svg>
